<?xml version="1.0" encoding="UTF-8"?>
<svg width="26px" height="26px" viewBox="0 0 26 26" xmlns="http://www.w3.org/2000/svg" xmlns:xlink="http://www.w3.org/1999/xlink" version="1.1">
 <!-- Generated by Pixelmator Pro 2.1.5 -->
 <path id="Путь" d="M7.547 0 C3.391 0 0 3.391 0 7.547 L0 18.453 C0 22.609 3.391 26 7.547 26 L18.453 26 C22.609 26 26 22.609 26 18.453 L26 7.547 C26 3.391 22.609 0 18.453 0 Z M7.547 2 L18.453 2 C21.527 2 24 4.469 24 7.547 L24 18.453 C24 21.527 21.531 24 18.453 24 L7.547 24 C4.473 24 2 21.531 2 18.453 L2 7.547 C2 4.473 4.469 2 7.547 2 Z M20.5 4 C19.672 4 19 4.672 19 5.5 19 6.328 19.672 7 20.5 7 21.328 7 22 6.328 22 5.5 22 4.672 21.328 4 20.5 4 Z M13 6 C9.145 6 6 9.145 6 13 6 16.855 9.145 20 13 20 16.855 20 20 16.855 20 13 20 9.145 16.855 6 13 6 Z M13 8 C15.773 8 18 10.227 18 13 18 15.773 15.773 18 13 18 10.227 18 8 15.773 8 13 8 10.227 10.227 8 13 8 Z" fill="#000000" fill-opacity="1" stroke="none"/>
</svg>
