<?xml version="1.0" encoding="UTF-8"?>
<svg width="24px" height="24px" viewBox="0 0 24 24" xmlns="http://www.w3.org/2000/svg" xmlns:xlink="http://www.w3.org/1999/xlink" version="1.1">
 <!-- Generated by Pixelmator Pro 2.1.5 -->
 <path id="Путь" d="M20.504 3.504 C18.246 1.246 15.246 0 12.051 0 5.465 0 0.102 5.359 0.102 11.945 0.098 14.051 0.648 16.105 1.695 17.918 L0 24.109 6.336 22.445 C8.078 23.398 10.047 23.898 12.047 23.902 L12.051 23.902 C18.637 23.902 23.996 18.543 24 11.953 24 8.762 22.758 5.762 20.504 3.504 Z M12.051 21.883 L12.047 21.883 C10.266 21.883 8.516 21.402 6.992 20.5 L6.629 20.285 2.867 21.27 3.871 17.605 3.637 17.23 C2.641 15.648 2.117 13.82 2.117 11.945 2.117 6.473 6.574 2.02 12.055 2.02 14.707 2.02 17.199 3.055 19.074 4.93 20.949 6.809 21.98 9.301 21.98 11.953 21.98 17.43 17.523 21.883 12.051 21.883 Z M17.496 14.445 C17.199 14.297 15.73 13.574 15.457 13.477 15.184 13.375 14.984 13.328 14.785 13.625 14.586 13.926 14.016 14.598 13.84 14.797 13.668 14.992 13.492 15.02 13.195 14.871 12.895 14.723 11.934 14.406 10.793 13.387 9.906 12.598 9.305 11.617 9.133 11.32 8.957 11.02 9.113 10.859 9.262 10.711 9.398 10.578 9.563 10.363 9.711 10.188 9.859 10.016 9.91 9.891 10.012 9.691 10.109 9.492 10.059 9.316 9.984 9.168 9.91 9.02 9.313 7.547 9.063 6.949 8.82 6.367 8.574 6.449 8.391 6.438 8.219 6.43 8.02 6.43 7.82 6.43 7.621 6.43 7.297 6.504 7.023 6.805 6.75 7.102 5.98 7.824 5.98 9.293 5.98 10.762 7.051 12.184 7.199 12.383 7.348 12.578 9.305 15.594 12.301 16.887 13.012 17.195 13.566 17.379 14 17.516 14.715 17.742 15.367 17.711 15.883 17.637 16.457 17.551 17.648 16.914 17.898 16.215 18.145 15.52 18.145 14.922 18.07 14.797 17.996 14.672 17.797 14.598 17.496 14.445 Z" fill="#000000" fill-opacity="1" stroke="none"/>
</svg>
